<svg width="10" height="12" viewBox="0 0 10 12" fill="none" xmlns="http://www.w3.org/2000/svg">
<path d="M5.46625 11.8082L9.79997 7.47457C9.92367 7.35086 9.99158 7.18599 9.99158 7.01018C9.99158 6.83419 9.92358 6.66941 9.79997 6.5457L9.40641 6.15224C9.2829 6.02863 9.11793 5.96053 8.94202 5.96053C8.76622 5.96053 8.59569 6.02863 8.47217 6.15224L5.93844 8.68041L5.93844 0.648287C5.93844 0.286144 5.65493 -1.89561e-07 5.29269 -2.05395e-07L4.7363 -2.29715e-07C4.37406 -2.45549e-07 4.06197 0.286144 4.06197 0.648287L4.06197 8.70909L1.51409 6.15234C1.39038 6.02873 1.22989 5.96063 1.05399 5.96063C0.878285 5.96063 0.715458 6.02873 0.591848 6.15234L0.199559 6.5458C0.0758531 6.6695 0.00843877 6.83428 0.00843876 7.01028C0.00843875 7.18608 0.0767304 7.35096 0.200437 7.47467L4.53406 11.8083C4.65816 11.9323 4.82381 12.0005 4.99991 12C5.17659 12.0004 5.34235 11.9323 5.46625 11.8082Z" fill="white"/>
</svg>
