<svg width="26" height="26" viewBox="0 0 26 26" fill="none" xmlns="http://www.w3.org/2000/svg">
<path d="M11.8868 23.9247H3.0671C2.73941 23.9247 2.44082 23.7728 2.24775 23.5079C2.05462 23.2429 2.00146 22.9119 2.1018 22.5998C3.10382 19.4846 6.15963 17.3088 9.53292 17.3088C11.1025 17.3088 12.6098 17.7815 13.8919 18.6757C14.3511 18.9959 14.9829 18.8834 15.3034 18.4241C15.6236 17.9649 15.511 17.3331 15.0518 17.0127C14.4171 16.5701 13.7391 16.209 13.0298 15.9333C13.9735 15.0753 14.5995 13.8738 14.7083 12.5285C16.1392 11.1347 18.0147 10.3709 20.0253 10.3709C21.5949 10.3709 23.1022 10.8436 24.3843 11.7377C24.8435 12.058 25.4753 11.9454 25.7957 11.4862C26.1159 11.027 26.0034 10.3951 25.5441 10.0748C24.9095 9.63214 24.2315 9.27103 23.5222 8.99534C24.5632 8.04888 25.2176 6.68449 25.2176 5.17009C25.2176 2.31933 22.8983 0 20.0475 0C17.1966 0 14.8773 2.31933 14.8773 5.17019C14.8773 6.67845 15.5265 8.03796 16.5602 8.98396C16.4188 9.0384 16.2783 9.09629 16.139 9.15764C15.5046 9.43678 14.908 9.77945 14.3534 10.1826C13.5882 8.28257 11.7257 6.93799 9.55507 6.93799C6.70421 6.93799 4.38492 9.25732 4.38492 12.1082C4.38492 13.612 5.03035 14.968 6.05867 15.9136C3.30897 16.9441 1.07942 19.157 0.171757 21.9791C-0.129274 22.9151 0.0301789 23.9076 0.609288 24.7022C1.1883 25.4967 2.08408 25.9523 3.06715 25.9523H11.8868C12.4468 25.9523 12.9006 25.4984 12.9006 24.9386C12.9006 24.3787 12.4467 23.9247 11.8868 23.9247ZM20.0475 2.02749C21.7804 2.02749 23.1902 3.43728 23.1902 5.17014C23.1902 6.903 21.7804 8.31279 20.0475 8.31279C18.3147 8.31279 16.9049 6.903 16.9049 5.17014C16.9049 3.43728 18.3147 2.02749 20.0475 2.02749ZM9.55512 8.96543C11.288 8.96543 12.6978 10.3752 12.6978 12.1081C12.6978 13.8409 11.288 15.2507 9.55512 15.2507C7.82226 15.2507 6.41247 13.8409 6.41247 12.1081C6.41247 10.3752 7.82226 8.96543 9.55512 8.96543Z" fill="white"/>
<rect x="16.8235" y="22.1765" width="1.91176" height="9.17647" rx="0.95588" transform="rotate(-90 16.8235 22.1765)" fill="white"/>
<rect x="22.1764" y="26" width="1.91177" height="9.17647" rx="0.955883" transform="rotate(-180 22.1764 26)" fill="white"/>
</svg>
