<svg width="426" height="130" viewBox="0 0 426 130" fill="none" xmlns="http://www.w3.org/2000/svg">
<path d="M31.792 21.28C30.9813 19.7867 29.808 18.656 28.272 17.888C26.7787 17.0773 25.008 16.672 22.96 16.672C19.4187 16.672 16.5813 17.8453 14.448 20.192C12.3147 22.496 11.248 25.5893 11.248 29.472C11.248 33.6107 12.3573 36.8533 14.576 39.2C16.8373 41.504 19.9307 42.656 23.856 42.656C26.544 42.656 28.8053 41.9733 30.64 40.608C32.5173 39.2427 33.8827 37.28 34.736 34.72H20.848V26.656H44.656V36.832C43.8453 39.5627 42.4587 42.1013 40.496 44.448C38.576 46.7947 36.1227 48.6933 33.136 50.144C30.1493 51.5947 26.7787 52.32 23.024 52.32C18.5867 52.32 14.6187 51.36 11.12 49.44C7.664 47.4773 4.95467 44.768 2.992 41.312C1.072 37.856 0.112 33.9093 0.112 29.472C0.112 25.0347 1.072 21.088 2.992 17.632C4.95467 14.1333 7.664 11.424 11.12 9.504C14.576 7.54133 18.5227 6.56 22.96 6.56C28.336 6.56 32.8587 7.86133 36.528 10.464C40.24 13.0667 42.6933 16.672 43.888 21.28H31.792ZM56.222 12.576C54.302 12.576 52.7233 12.0213 51.486 10.912C50.2913 9.76 49.694 8.352 49.694 6.688C49.694 4.98133 50.2913 3.57333 51.486 2.464C52.7233 1.312 54.302 0.735996 56.222 0.735996C58.0993 0.735996 59.6353 1.312 60.83 2.464C62.0673 3.57333 62.686 4.98133 62.686 6.688C62.686 8.352 62.0673 9.76 60.83 10.912C59.6353 12.0213 58.0993 12.576 56.222 12.576ZM61.662 16.288V52H50.718V16.288H61.662ZM89.497 42.72V52H83.929C79.961 52 76.8677 51.04 74.649 49.12C72.4303 47.1573 71.321 43.9787 71.321 39.584V25.376H66.969V16.288H71.321V7.584H82.265V16.288H89.433V25.376H82.265V39.712C82.265 40.7787 82.521 41.5467 83.033 42.016C83.545 42.4853 84.3983 42.72 85.593 42.72H89.497ZM134.505 7.072V52H123.561V33.504H106.537V52H95.593V7.072H106.537V24.672H123.561V7.072H134.505ZM177.67 16.288V52H166.726V47.136C165.616 48.7147 164.102 49.9947 162.182 50.976C160.304 51.9147 158.214 52.384 155.91 52.384C153.179 52.384 150.768 51.7867 148.678 50.592C146.587 49.3547 144.966 47.584 143.814 45.28C142.662 42.976 142.086 40.2667 142.086 37.152V16.288H152.966V35.68C152.966 38.0693 153.584 39.9253 154.822 41.248C156.059 42.5707 157.723 43.232 159.814 43.232C161.947 43.232 163.632 42.5707 164.87 41.248C166.107 39.9253 166.726 38.0693 166.726 35.68V16.288H177.67ZM196.475 21.344C197.499 19.68 198.971 18.336 200.891 17.312C202.811 16.288 205.008 15.776 207.483 15.776C210.427 15.776 213.093 16.5227 215.483 18.016C217.872 19.5093 219.749 21.6427 221.115 24.416C222.523 27.1893 223.227 30.4107 223.227 34.08C223.227 37.7493 222.523 40.992 221.115 43.808C219.749 46.5813 217.872 48.736 215.483 50.272C213.093 51.7653 210.427 52.512 207.483 52.512C204.965 52.512 202.768 52.0213 200.891 51.04C199.013 50.016 197.541 48.672 196.475 47.008V52H185.531V4.64H196.475V21.344ZM212.091 34.08C212.091 31.3493 211.323 29.216 209.787 27.68C208.293 26.1013 206.437 25.312 204.219 25.312C202.043 25.312 200.187 26.1013 198.651 27.68C197.157 29.2587 196.411 31.4133 196.411 34.144C196.411 36.8747 197.157 39.0293 198.651 40.608C200.187 42.1867 202.043 42.976 204.219 42.976C206.395 42.976 208.251 42.1867 209.787 40.608C211.323 38.9867 212.091 36.8107 212.091 34.08ZM36.208 98.536C36.208 101.139 35.6107 103.528 34.416 105.704C33.2213 107.837 31.3867 109.565 28.912 110.888C26.4373 112.211 23.3653 112.872 19.696 112.872H12.912V129H1.968V84.072H19.696C23.28 84.072 26.3093 84.6907 28.784 85.928C31.2587 87.1653 33.1147 88.872 34.352 91.048C35.5893 93.224 36.208 95.72 36.208 98.536ZM18.864 104.168C20.9547 104.168 22.512 103.677 23.536 102.696C24.56 101.715 25.072 100.328 25.072 98.536C25.072 96.744 24.56 95.3573 23.536 94.376C22.512 93.3947 20.9547 92.904 18.864 92.904H12.912V104.168H18.864ZM52.8495 99.24C54.1295 97.2773 55.7295 95.7413 57.6495 94.632C59.5695 93.48 61.7028 92.904 64.0495 92.904V104.488H61.0415C58.3108 104.488 56.2628 105.085 54.8975 106.28C53.5322 107.432 52.8495 109.48 52.8495 112.424V129H41.9055V93.288H52.8495V99.24ZM85.5365 129.512C82.0378 129.512 78.8805 128.765 76.0645 127.272C73.2912 125.779 71.0938 123.645 69.4725 120.872C67.8938 118.099 67.1045 114.856 67.1045 111.144C67.1045 107.475 67.9152 104.253 69.5365 101.48C71.1578 98.664 73.3765 96.5093 76.1925 95.016C79.0085 93.5227 82.1658 92.776 85.6645 92.776C89.1632 92.776 92.3205 93.5227 95.1365 95.016C97.9525 96.5093 100.171 98.664 101.793 101.48C103.414 104.253 104.225 107.475 104.225 111.144C104.225 114.813 103.393 118.056 101.729 120.872C100.107 123.645 97.8672 125.779 95.0085 127.272C92.1925 128.765 89.0352 129.512 85.5365 129.512ZM85.5365 120.04C87.6272 120.04 89.3978 119.272 90.8485 117.736C92.3418 116.2 93.0885 114.003 93.0885 111.144C93.0885 108.285 92.3632 106.088 90.9125 104.552C89.5045 103.016 87.7552 102.248 85.6645 102.248C83.5312 102.248 81.7605 103.016 80.3525 104.552C78.9445 106.045 78.2405 108.243 78.2405 111.144C78.2405 114.003 78.9232 116.2 80.2885 117.736C81.6965 119.272 83.4458 120.04 85.5365 120.04ZM127.951 102.376H122.062V129H111.119V102.376H107.151V93.288H111.119V92.264C111.119 87.8693 112.377 84.5413 114.895 82.28C117.412 79.976 121.103 78.824 125.967 78.824C126.777 78.824 127.375 78.8453 127.759 78.888V88.168C125.668 88.04 124.196 88.3387 123.343 89.064C122.489 89.7893 122.062 91.0907 122.062 92.968V93.288H127.951V102.376ZM138.597 89.576C136.677 89.576 135.098 89.0213 133.861 87.912C132.666 86.76 132.069 85.352 132.069 83.688C132.069 81.9813 132.666 80.5733 133.861 79.464C135.098 78.312 136.677 77.736 138.597 77.736C140.474 77.736 142.01 78.312 143.205 79.464C144.442 80.5733 145.061 81.9813 145.061 83.688C145.061 85.352 144.442 86.76 143.205 87.912C142.01 89.0213 140.474 89.576 138.597 89.576ZM144.037 93.288V129H133.093V93.288H144.037ZM162.912 81.64V129H151.968V81.64H162.912ZM204.507 110.568C204.507 111.592 204.443 112.659 204.315 113.768H179.547C179.718 115.987 180.422 117.693 181.659 118.888C182.939 120.04 184.496 120.616 186.331 120.616C189.062 120.616 190.96 119.464 192.027 117.16H203.675C203.078 119.507 201.99 121.619 200.411 123.496C198.875 125.373 196.934 126.845 194.587 127.912C192.24 128.979 189.616 129.512 186.715 129.512C183.216 129.512 180.102 128.765 177.371 127.272C174.64 125.779 172.507 123.645 170.971 120.872C169.435 118.099 168.667 114.856 168.667 111.144C168.667 107.432 169.414 104.189 170.907 101.416C172.443 98.6427 174.576 96.5093 177.307 95.016C180.038 93.5227 183.174 92.776 186.715 92.776C190.171 92.776 193.243 93.5013 195.931 94.952C198.619 96.4027 200.71 98.472 202.203 101.16C203.739 103.848 204.507 106.984 204.507 110.568ZM193.307 107.688C193.307 105.811 192.667 104.317 191.387 103.208C190.107 102.099 188.507 101.544 186.587 101.544C184.752 101.544 183.195 102.077 181.915 103.144C180.678 104.211 179.91 105.725 179.611 107.688H193.307ZM253.091 84.072V92.84H234.787V102.312H248.483V110.824H234.787V129H223.843V84.072H253.091ZM264.347 89.576C262.427 89.576 260.848 89.0213 259.611 87.912C258.416 86.76 257.819 85.352 257.819 83.688C257.819 81.9813 258.416 80.5733 259.611 79.464C260.848 78.312 262.427 77.736 264.347 77.736C266.224 77.736 267.76 78.312 268.955 79.464C270.192 80.5733 270.811 81.9813 270.811 83.688C270.811 85.352 270.192 86.76 268.955 87.912C267.76 89.0213 266.224 89.576 264.347 89.576ZM269.787 93.288V129H258.843V93.288H269.787ZM299.478 92.904C303.659 92.904 306.987 94.2693 309.462 97C311.979 99.688 313.238 103.4 313.238 108.136V129H302.358V109.608C302.358 107.219 301.739 105.363 300.502 104.04C299.265 102.717 297.601 102.056 295.51 102.056C293.419 102.056 291.755 102.717 290.518 104.04C289.281 105.363 288.662 107.219 288.662 109.608V129H277.718V93.288H288.662V98.024C289.771 96.4453 291.265 95.208 293.142 94.312C295.019 93.3733 297.131 92.904 299.478 92.904ZM318.667 111.08C318.667 107.411 319.35 104.189 320.715 101.416C322.123 98.6427 324.022 96.5093 326.411 95.016C328.8 93.5227 331.467 92.776 334.411 92.776C336.758 92.776 338.891 93.2667 340.811 94.248C342.774 95.2293 344.31 96.552 345.419 98.216V81.64H356.363V129H345.419V123.88C344.395 125.587 342.923 126.952 341.003 127.976C339.126 129 336.928 129.512 334.411 129.512C331.467 129.512 328.8 128.765 326.411 127.272C324.022 125.736 322.123 123.581 320.715 120.808C319.35 117.992 318.667 114.749 318.667 111.08ZM345.419 111.144C345.419 108.413 344.651 106.259 343.115 104.68C341.622 103.101 339.787 102.312 337.611 102.312C335.435 102.312 333.579 103.101 332.043 104.68C330.55 106.216 329.803 108.349 329.803 111.08C329.803 113.811 330.55 115.987 332.043 117.608C333.579 119.187 335.435 119.976 337.611 119.976C339.787 119.976 341.622 119.187 343.115 117.608C344.651 116.029 345.419 113.875 345.419 111.144ZM397.944 110.568C397.944 111.592 397.881 112.659 397.753 113.768H372.985C373.155 115.987 373.859 117.693 375.097 118.888C376.377 120.04 377.934 120.616 379.769 120.616C382.499 120.616 384.398 119.464 385.465 117.16H397.113C396.515 119.507 395.427 121.619 393.849 123.496C392.313 125.373 390.371 126.845 388.025 127.912C385.678 128.979 383.054 129.512 380.153 129.512C376.654 129.512 373.539 128.765 370.809 127.272C368.078 125.779 365.945 123.645 364.409 120.872C362.873 118.099 362.105 114.856 362.105 111.144C362.105 107.432 362.851 104.189 364.345 101.416C365.881 98.6427 368.014 96.5093 370.745 95.016C373.475 93.5227 376.611 92.776 380.153 92.776C383.609 92.776 386.681 93.5013 389.369 94.952C392.057 96.4027 394.147 98.472 395.641 101.16C397.177 103.848 397.944 106.984 397.944 110.568ZM386.745 107.688C386.745 105.811 386.105 104.317 384.825 103.208C383.545 102.099 381.945 101.544 380.025 101.544C378.19 101.544 376.633 102.077 375.353 103.144C374.115 104.211 373.347 105.725 373.049 107.688H386.745ZM414.662 99.24C415.942 97.2773 417.542 95.7413 419.462 94.632C421.382 93.48 423.515 92.904 425.862 92.904V104.488H422.854C420.123 104.488 418.075 105.085 416.71 106.28C415.345 107.432 414.662 109.48 414.662 112.424V129H403.718V93.288H414.662V99.24Z" fill="#6F42C1"/>
</svg>
