<svg width="20" height="17" viewBox="0 0 20 17" fill="none" xmlns="http://www.w3.org/2000/svg">
<path d="M18.4442 4.00276C18.4626 3.08567 18.2612 2.15841 18.0976 1.24536C18.0413 0.931067 17.9272 0.627352 17.8148 0.329344C17.7301 0.104999 17.4801 -0.0378667 17.2499 0.0112423C17.1009 0.0429902 16.9669 0.0739081 16.837 0.116654C15.4769 0.564099 14.2175 1.21849 13.0077 1.97878C12.8452 2.08081 12.6088 2.11764 12.4125 2.10325C11.9431 2.06894 11.4787 1.95212 11.0095 1.92988C9.84819 1.87486 8.68919 1.9102 7.53841 2.11148C7.37842 2.13942 7.16781 2.1119 7.0349 2.02599C5.71567 1.17236 4.34311 0.441741 2.79911 0.0315429C2.56733 -0.0300508 2.32881 0.00256171 2.27019 0.0946238C2.2344 0.150926 2.20203 0.209338 2.18425 0.271969C2.01745 0.858026 1.81977 1.44114 1.72283 2.03969C1.60729 2.75401 1.49617 3.48996 1.55099 4.20342C1.5855 4.6519 1.46166 4.9275 1.2166 5.24221C0.394504 6.29837 0.0243186 7.5124 0.00166622 8.84349C-0.0178045 9.98196 0.132877 11.0914 0.47958 12.1798C1.01061 13.8474 2.03606 15.0989 3.58009 15.9131C4.84959 16.5825 6.23294 16.8406 7.64849 16.8903C8.92435 16.935 10.2027 16.8971 11.48 16.9043C12.7604 16.9115 14.023 16.7974 15.2479 16.3982C16.4738 15.9988 17.5346 15.3543 18.3577 14.341C19.5466 12.8772 19.9167 11.1528 19.9927 9.32753C20.0509 7.93169 19.7664 6.61861 18.949 5.47673C18.6176 5.01344 18.4318 4.61552 18.4442 4.00276ZM15.9793 14.6982C15.4303 15.173 14.759 15.3977 14.0717 15.562C12.7233 15.8841 11.3503 15.9644 9.97287 15.9042C8.6113 15.9633 7.2654 15.8784 5.94067 15.5666C4.96347 15.3368 4.07135 14.9503 3.44953 14.1115C2.46006 12.7766 2.20714 10.2361 3.84216 8.84965C4.2591 8.49617 4.72412 8.27182 5.27359 8.23693C5.87998 8.19819 6.48658 8.12263 7.09252 8.12982C8.62109 8.14801 10.149 8.22403 11.6773 8.23544C12.3754 8.24049 13.0783 8.07774 13.7712 8.11965C14.4009 8.15777 15.0629 8.27372 15.6344 8.52709C16.5871 8.94953 17.0999 9.8061 17.2548 10.8093C17.4855 12.301 17.1811 13.6588 15.9793 14.6982Z" fill="white"/>
<path d="M13.4885 13.7371C14.2931 13.7371 14.9454 12.8654 14.9454 11.7901C14.9454 10.7148 14.2931 9.84308 13.4885 9.84308C12.684 9.84308 12.0317 10.7148 12.0317 11.7901C12.0317 12.8654 12.684 13.7371 13.4885 13.7371Z" fill="white"/>
<path d="M6.53734 13.7371C7.34203 13.7371 7.99435 12.8654 7.99435 11.7901C7.99435 10.7148 7.34203 9.84308 6.53734 9.84308C5.73265 9.84308 5.08032 10.7148 5.08032 11.7901C5.08032 12.8654 5.73265 13.7371 6.53734 13.7371Z" fill="white"/>
</svg>
