<svg width="180" height="173" viewBox="0 0 180 173" fill="none" xmlns="http://www.w3.org/2000/svg">
<path d="M90 0C40.275 0 0 39.6 0 88.44C0 127.522 25.785 160.665 61.5375 172.35C66.0375 173.182 67.6875 170.445 67.6875 168.098C67.6875 165.997 67.6125 160.433 67.575 153.06C42.54 158.393 37.26 141.195 37.26 141.195C33.165 130.988 27.2475 128.257 27.2475 128.257C19.095 122.775 27.8775 122.888 27.8775 122.888C36.915 123.503 41.6625 132 41.6625 132C49.6875 145.523 62.73 141.615 67.875 139.357C68.685 133.635 71.0025 129.742 73.575 127.53C53.5875 125.317 32.58 117.713 32.58 83.8275C32.58 74.175 36.0675 66.285 41.8425 60.0975C40.83 57.8625 37.7925 48.87 42.63 36.69C42.63 36.69 50.1675 34.32 67.38 45.7575C74.58 43.7925 82.23 42.8175 89.88 42.7725C97.53 42.8175 105.18 43.7925 112.38 45.7575C129.48 34.32 137.017 36.69 137.017 36.69C141.855 48.87 138.818 57.8625 137.917 60.0975C143.655 66.285 147.143 74.175 147.143 83.8275C147.143 117.803 126.105 125.28 106.08 127.455C109.23 130.11 112.155 135.533 112.155 143.82C112.155 155.655 112.043 165.165 112.043 168.038C112.043 170.355 113.618 173.122 118.23 172.238C154.238 160.628 180 127.463 180 88.44C180 39.6 139.702 0 90 0Z" fill="#0D1117"/>
</svg>
